<?xml version="1.0" encoding="utf-8" standalone="no"?>
<!DOCTYPE svg PUBLIC "-//W3C//DTD SVG 1.1//EN"
  "http://www.w3.org/Graphics/SVG/1.1/DTD/svg11.dtd">
<svg xmlns:xlink="http://www.w3.org/1999/xlink" width="526.796392pt" height="353.99952pt" viewBox="0 0 526.796392 353.99952" xmlns="http://www.w3.org/2000/svg" version="1.1">
 <metadata>
  <rdf:RDF xmlns:dc="http://purl.org/dc/elements/1.1/" xmlns:cc="http://creativecommons.org/ns#" xmlns:rdf="http://www.w3.org/1999/02/22-rdf-syntax-ns#">
   <cc:Work>
    <dc:type rdf:resource="http://purl.org/dc/dcmitype/StillImage"/>
    <dc:date>2022-02-02T11:20:36.550796</dc:date>
    <dc:format>image/svg+xml</dc:format>
    <dc:creator>
     <cc:Agent>
      <dc:title>Matplotlib v3.5.0, https://matplotlib.org/</dc:title>
     </cc:Agent>
    </dc:creator>
   </cc:Work>
  </rdf:RDF>
 </metadata>
 <defs>
  <style type="text/css">*{stroke-linejoin: round; stroke-linecap: butt}</style>
 </defs>
 <g id="figure_1">
  <g id="patch_1">
   <path d="M 0 353.99952 
L 526.796392 353.99952 
L 526.796392 0 
L 0 0 
z
" style="fill: #ffffff"/>
  </g>
  <g id="axes_1">
   <g id="patch_2">
    <path d="M 7.2 326.750145 
L 511.259394 326.750145 
L 511.259394 25.3575 
L 7.2 25.3575 
z
" style="fill: #ffffff"/>
   </g>
   <g id="matplotlib.axis_1">
    <g id="xtick_1">
     <g id="line2d_1">
      <defs>
       <path id="m84c0f9846c" d="M 0 0 
L 0 3 
" style="stroke: #808080"/>
      </defs>
      <g>
       <use xlink:href="#m84c0f9846c" x="74.733729" y="326.750145" style="fill: #808080; stroke: #808080"/>
      </g>
     </g>
     <g id="text_1">
      <!-- 1.6 -->
      <g style="fill: #262626" transform="translate(63.601541 343.887957)scale(0.14 -0.14)">
       <defs>
        <path id="DejaVuSans-31" d="M 794 531 
L 1825 531 
L 1825 4091 
L 703 3866 
L 703 4441 
L 1819 4666 
L 2450 4666 
L 2450 531 
L 3481 531 
L 3481 0 
L 794 0 
L 794 531 
z
" transform="scale(0.015625)"/>
        <path id="DejaVuSans-2e" d="M 684 794 
L 1344 794 
L 1344 0 
L 684 0 
L 684 794 
z
" transform="scale(0.015625)"/>
        <path id="DejaVuSans-36" d="M 2113 2584 
Q 1688 2584 1439 2293 
Q 1191 2003 1191 1497 
Q 1191 994 1439 701 
Q 1688 409 2113 409 
Q 2538 409 2786 701 
Q 3034 994 3034 1497 
Q 3034 2003 2786 2293 
Q 2538 2584 2113 2584 
z
M 3366 4563 
L 3366 3988 
Q 3128 4100 2886 4159 
Q 2644 4219 2406 4219 
Q 1781 4219 1451 3797 
Q 1122 3375 1075 2522 
Q 1259 2794 1537 2939 
Q 1816 3084 2150 3084 
Q 2853 3084 3261 2657 
Q 3669 2231 3669 1497 
Q 3669 778 3244 343 
Q 2819 -91 2113 -91 
Q 1303 -91 875 529 
Q 447 1150 447 2328 
Q 447 3434 972 4092 
Q 1497 4750 2381 4750 
Q 2619 4750 2861 4703 
Q 3103 4656 3366 4563 
z
" transform="scale(0.015625)"/>
       </defs>
       <use xlink:href="#DejaVuSans-31"/>
       <use xlink:href="#DejaVuSans-2e" x="63.623047"/>
       <use xlink:href="#DejaVuSans-36" x="95.410156"/>
      </g>
     </g>
    </g>
    <g id="xtick_2">
     <g id="line2d_2">
      <g>
       <use xlink:href="#m84c0f9846c" x="161.479824" y="326.750145" style="fill: #808080; stroke: #808080"/>
      </g>
     </g>
     <g id="text_2">
      <!-- 1.8 -->
      <g style="fill: #262626" transform="translate(150.347636 343.887957)scale(0.14 -0.14)">
       <defs>
        <path id="DejaVuSans-38" d="M 2034 2216 
Q 1584 2216 1326 1975 
Q 1069 1734 1069 1313 
Q 1069 891 1326 650 
Q 1584 409 2034 409 
Q 2484 409 2743 651 
Q 3003 894 3003 1313 
Q 3003 1734 2745 1975 
Q 2488 2216 2034 2216 
z
M 1403 2484 
Q 997 2584 770 2862 
Q 544 3141 544 3541 
Q 544 4100 942 4425 
Q 1341 4750 2034 4750 
Q 2731 4750 3128 4425 
Q 3525 4100 3525 3541 
Q 3525 3141 3298 2862 
Q 3072 2584 2669 2484 
Q 3125 2378 3379 2068 
Q 3634 1759 3634 1313 
Q 3634 634 3220 271 
Q 2806 -91 2034 -91 
Q 1263 -91 848 271 
Q 434 634 434 1313 
Q 434 1759 690 2068 
Q 947 2378 1403 2484 
z
M 1172 3481 
Q 1172 3119 1398 2916 
Q 1625 2713 2034 2713 
Q 2441 2713 2670 2916 
Q 2900 3119 2900 3481 
Q 2900 3844 2670 4047 
Q 2441 4250 2034 4250 
Q 1625 4250 1398 4047 
Q 1172 3844 1172 3481 
z
" transform="scale(0.015625)"/>
       </defs>
       <use xlink:href="#DejaVuSans-31"/>
       <use xlink:href="#DejaVuSans-2e" x="63.623047"/>
       <use xlink:href="#DejaVuSans-38" x="95.410156"/>
      </g>
     </g>
    </g>
    <g id="xtick_3">
     <g id="line2d_3">
      <g>
       <use xlink:href="#m84c0f9846c" x="248.225919" y="326.750145" style="fill: #808080; stroke: #808080"/>
      </g>
     </g>
     <g id="text_3">
      <!-- 2.0 -->
      <g style="fill: #262626" transform="translate(237.093731 343.887957)scale(0.14 -0.14)">
       <defs>
        <path id="DejaVuSans-32" d="M 1228 531 
L 3431 531 
L 3431 0 
L 469 0 
L 469 531 
Q 828 903 1448 1529 
Q 2069 2156 2228 2338 
Q 2531 2678 2651 2914 
Q 2772 3150 2772 3378 
Q 2772 3750 2511 3984 
Q 2250 4219 1831 4219 
Q 1534 4219 1204 4116 
Q 875 4013 500 3803 
L 500 4441 
Q 881 4594 1212 4672 
Q 1544 4750 1819 4750 
Q 2544 4750 2975 4387 
Q 3406 4025 3406 3419 
Q 3406 3131 3298 2873 
Q 3191 2616 2906 2266 
Q 2828 2175 2409 1742 
Q 1991 1309 1228 531 
z
" transform="scale(0.015625)"/>
        <path id="DejaVuSans-30" d="M 2034 4250 
Q 1547 4250 1301 3770 
Q 1056 3291 1056 2328 
Q 1056 1369 1301 889 
Q 1547 409 2034 409 
Q 2525 409 2770 889 
Q 3016 1369 3016 2328 
Q 3016 3291 2770 3770 
Q 2525 4250 2034 4250 
z
M 2034 4750 
Q 2819 4750 3233 4129 
Q 3647 3509 3647 2328 
Q 3647 1150 3233 529 
Q 2819 -91 2034 -91 
Q 1250 -91 836 529 
Q 422 1150 422 2328 
Q 422 3509 836 4129 
Q 1250 4750 2034 4750 
z
" transform="scale(0.015625)"/>
       </defs>
       <use xlink:href="#DejaVuSans-32"/>
       <use xlink:href="#DejaVuSans-2e" x="63.623047"/>
       <use xlink:href="#DejaVuSans-30" x="95.410156"/>
      </g>
     </g>
    </g>
    <g id="xtick_4">
     <g id="line2d_4">
      <g>
       <use xlink:href="#m84c0f9846c" x="334.972014" y="326.750145" style="fill: #808080; stroke: #808080"/>
      </g>
     </g>
     <g id="text_4">
      <!-- 2.2 -->
      <g style="fill: #262626" transform="translate(323.839826 343.887957)scale(0.14 -0.14)">
       <use xlink:href="#DejaVuSans-32"/>
       <use xlink:href="#DejaVuSans-2e" x="63.623047"/>
       <use xlink:href="#DejaVuSans-32" x="95.410156"/>
      </g>
     </g>
    </g>
    <g id="xtick_5">
     <g id="line2d_5">
      <g>
       <use xlink:href="#m84c0f9846c" x="421.718109" y="326.750145" style="fill: #808080; stroke: #808080"/>
      </g>
     </g>
     <g id="text_5">
      <!-- 2.4 -->
      <g style="fill: #262626" transform="translate(410.585921 343.887957)scale(0.14 -0.14)">
       <defs>
        <path id="DejaVuSans-34" d="M 2419 4116 
L 825 1625 
L 2419 1625 
L 2419 4116 
z
M 2253 4666 
L 3047 4666 
L 3047 1625 
L 3713 1625 
L 3713 1100 
L 3047 1100 
L 3047 0 
L 2419 0 
L 2419 1100 
L 313 1100 
L 313 1709 
L 2253 4666 
z
" transform="scale(0.015625)"/>
       </defs>
       <use xlink:href="#DejaVuSans-32"/>
       <use xlink:href="#DejaVuSans-2e" x="63.623047"/>
       <use xlink:href="#DejaVuSans-34" x="95.410156"/>
      </g>
     </g>
    </g>
    <g id="xtick_6">
     <g id="line2d_6">
      <g>
       <use xlink:href="#m84c0f9846c" x="508.464204" y="326.750145" style="fill: #808080; stroke: #808080"/>
      </g>
     </g>
     <g id="text_6">
      <!-- 2.6 -->
      <g style="fill: #262626" transform="translate(497.332017 343.887957)scale(0.14 -0.14)">
       <use xlink:href="#DejaVuSans-32"/>
       <use xlink:href="#DejaVuSans-2e" x="63.623047"/>
       <use xlink:href="#DejaVuSans-36" x="95.410156"/>
      </g>
     </g>
    </g>
   </g>
   <g id="matplotlib.axis_2"/>
   <g id="PolyCollection_1">
    <defs>
     <path id="ma229b4556d" d="M 30.111791 -40.949041 
L 30.111791 -43.69876 
L 31.008534 -43.702267 
L 31.905277 -43.710175 
L 32.80202 -43.737726 
L 33.698764 -43.771004 
L 34.595507 -43.810132 
L 35.49225 -43.870569 
L 36.388994 -43.920646 
L 37.285737 -43.994842 
L 38.18248 -44.082588 
L 39.079223 -44.178033 
L 39.975967 -44.277844 
L 40.87271 -44.400403 
L 41.769453 -44.520881 
L 42.666196 -44.668676 
L 43.56294 -44.822406 
L 44.459683 -44.99717 
L 45.356426 -45.178815 
L 46.25317 -45.367727 
L 47.149913 -45.582016 
L 48.046656 -45.817037 
L 48.943399 -46.07153 
L 49.840143 -46.34683 
L 50.736886 -46.635242 
L 51.633629 -46.958276 
L 52.530372 -47.303088 
L 53.427116 -47.670126 
L 54.323859 -48.065989 
L 55.220602 -48.493342 
L 56.117346 -48.950274 
L 57.014089 -49.435945 
L 57.910832 -49.953741 
L 58.807575 -50.504946 
L 59.704319 -51.077144 
L 60.601062 -51.676535 
L 61.497805 -52.308296 
L 62.394548 -52.956232 
L 63.291292 -53.629156 
L 64.188035 -54.33178 
L 65.084778 -55.050856 
L 65.981522 -55.783062 
L 66.878265 -56.534402 
L 67.775008 -57.293593 
L 68.671751 -58.060749 
L 69.568495 -58.839861 
L 70.465238 -59.615965 
L 71.361981 -60.397206 
L 72.258724 -61.163222 
L 73.155468 -61.924969 
L 74.052211 -62.684173 
L 74.948954 -63.440614 
L 75.845698 -64.191561 
L 76.742441 -64.940735 
L 77.639184 -65.680444 
L 78.535927 -66.404748 
L 79.432671 -67.120111 
L 80.329414 -67.830799 
L 81.226157 -68.544753 
L 82.1229 -69.272518 
L 83.019644 -69.989475 
L 83.916387 -70.733733 
L 84.81313 -71.480033 
L 85.709874 -72.255635 
L 86.606617 -73.025922 
L 87.50336 -73.840796 
L 88.400103 -74.686543 
L 89.296847 -75.557051 
L 90.19359 -76.463626 
L 91.090333 -77.419179 
L 91.987076 -78.40764 
L 92.88382 -79.460992 
L 93.780563 -80.57485 
L 94.677306 -81.712577 
L 95.57405 -82.955634 
L 96.470793 -84.230688 
L 97.367536 -85.558099 
L 98.264279 -86.958812 
L 99.161023 -88.410807 
L 100.057766 -89.924758 
L 100.954509 -91.494959 
L 101.851252 -93.101661 
L 102.747996 -94.782456 
L 103.644739 -96.51683 
L 104.541482 -98.305856 
L 105.438226 -100.166589 
L 106.334969 -102.054319 
L 107.231712 -103.993418 
L 108.128455 -105.978762 
L 109.025199 -107.995613 
L 109.921942 -110.060368 
L 110.818685 -112.157634 
L 111.715428 -114.279587 
L 112.612172 -116.407131 
L 113.508915 -118.594257 
L 114.405658 -120.813423 
L 115.302402 -123.050371 
L 116.199145 -125.293858 
L 117.095888 -127.574635 
L 117.992631 -129.867723 
L 118.889375 -132.195674 
L 119.786118 -134.529124 
L 120.682861 -136.875067 
L 121.579604 -139.230819 
L 122.476348 -141.602644 
L 123.373091 -143.971922 
L 124.269834 -146.376899 
L 125.166578 -148.782964 
L 126.063321 -151.197679 
L 126.960064 -153.626729 
L 127.856807 -156.07937 
L 128.753551 -158.498611 
L 129.650294 -160.923666 
L 130.547037 -163.368765 
L 131.44378 -165.805137 
L 132.340524 -168.241581 
L 133.237267 -170.664315 
L 134.13401 -173.106018 
L 135.030754 -175.519775 
L 135.927497 -177.958058 
L 136.82424 -180.405631 
L 137.720983 -182.858715 
L 138.617727 -185.297774 
L 139.51447 -187.721999 
L 140.411213 -190.142867 
L 141.307956 -192.595015 
L 142.2047 -195.006813 
L 143.101443 -197.440663 
L 143.998186 -199.886486 
L 144.89493 -202.312018 
L 145.791673 -204.730946 
L 146.688416 -207.114014 
L 147.585159 -209.528244 
L 148.481903 -211.935147 
L 149.378646 -214.328157 
L 150.275389 -216.715102 
L 151.172133 -219.078145 
L 152.068876 -221.427863 
L 152.965619 -223.744618 
L 153.862362 -226.02361 
L 154.759106 -228.280721 
L 155.655849 -230.514168 
L 156.552592 -232.714347 
L 157.449335 -234.888118 
L 158.346079 -236.988406 
L 159.242822 -239.063733 
L 160.139565 -241.093641 
L 161.036309 -243.07614 
L 161.933052 -245.022579 
L 162.829795 -246.899531 
L 163.726538 -248.788413 
L 164.623282 -250.588187 
L 165.520025 -252.368292 
L 166.416768 -254.107423 
L 167.313511 -255.815479 
L 168.210255 -257.476492 
L 169.106998 -259.097238 
L 170.003741 -260.679651 
L 170.900485 -262.228429 
L 171.797228 -263.77802 
L 172.693971 -265.267124 
L 173.590714 -266.781823 
L 174.487458 -268.264108 
L 175.384201 -269.72576 
L 176.280944 -271.190168 
L 177.177687 -272.624957 
L 178.074431 -274.078468 
L 178.971174 -275.544677 
L 179.867917 -276.939056 
L 180.764661 -278.334626 
L 181.661404 -279.692803 
L 182.558147 -281.046742 
L 183.45489 -282.39403 
L 184.351634 -283.705705 
L 185.248377 -285.000605 
L 186.14512 -286.254818 
L 187.041863 -287.503904 
L 187.938607 -288.727941 
L 188.83535 -289.909242 
L 189.732093 -291.11617 
L 190.628837 -292.27107 
L 191.52558 -293.357964 
L 192.422323 -294.42629 
L 193.319066 -295.491324 
L 194.21581 -296.530316 
L 195.112553 -297.519953 
L 196.009296 -298.498933 
L 196.906039 -299.442636 
L 197.802783 -300.387488 
L 198.699526 -301.340378 
L 199.596269 -302.2723 
L 200.493013 -303.189014 
L 201.389756 -304.073294 
L 202.286499 -304.970983 
L 203.183242 -305.840167 
L 204.079986 -306.689121 
L 204.976729 -307.523257 
L 205.873472 -308.346647 
L 206.770215 -309.14758 
L 207.666959 -309.904106 
L 208.563702 -310.647629 
L 209.460445 -311.360844 
L 210.357189 -312.039729 
L 211.253932 -312.635758 
L 212.150675 -313.217813 
L 213.047418 -313.698642 
L 213.944162 -314.10064 
L 214.840905 -314.423944 
L 215.737648 -314.679153 
L 216.634391 -314.859891 
L 217.531135 -314.942354 
L 218.427878 -314.874347 
L 219.324621 -314.776134 
L 220.221365 -314.518963 
L 221.118108 -314.129335 
L 222.014851 -313.668572 
L 222.911594 -313.07911 
L 223.808338 -312.417164 
L 224.705081 -311.620088 
L 225.601824 -310.703082 
L 226.498567 -309.702273 
L 227.395311 -308.571136 
L 228.292054 -307.344357 
L 229.188797 -306.05407 
L 230.085541 -304.682526 
L 230.982284 -303.222041 
L 231.879027 -301.717538 
L 232.77577 -300.128917 
L 233.672514 -298.504028 
L 234.569257 -296.834808 
L 235.466 -295.150438 
L 236.362743 -293.397158 
L 237.259487 -291.637121 
L 238.15623 -289.860078 
L 239.052973 -288.063741 
L 239.949717 -286.299746 
L 240.84646 -284.464978 
L 241.743203 -282.686444 
L 242.639946 -280.895092 
L 243.53669 -279.138164 
L 244.433433 -277.38976 
L 245.330176 -275.669352 
L 246.226919 -273.989036 
L 247.123663 -272.320468 
L 248.020406 -270.679207 
L 248.917149 -269.08605 
L 249.813893 -267.502797 
L 250.710636 -265.92907 
L 251.607379 -264.417791 
L 252.504122 -262.912046 
L 253.400866 -261.41594 
L 254.297609 -259.941401 
L 255.194352 -258.4703 
L 256.091095 -257.028551 
L 256.987839 -255.637101 
L 257.884582 -254.19917 
L 258.781325 -252.788162 
L 259.678069 -251.354278 
L 260.574812 -249.90227 
L 261.471555 -248.448156 
L 262.368298 -246.974023 
L 263.265042 -245.479038 
L 264.161785 -243.906338 
L 265.058528 -242.30123 
L 265.955271 -240.681407 
L 266.852015 -238.974356 
L 267.748758 -237.228818 
L 268.645501 -235.464408 
L 269.542245 -233.648913 
L 270.438988 -231.758807 
L 271.335731 -229.807213 
L 272.232474 -227.813512 
L 273.129218 -225.76167 
L 274.025961 -223.675444 
L 274.922704 -221.512927 
L 275.819447 -219.285654 
L 276.716191 -217.029832 
L 277.612934 -214.756164 
L 278.509677 -212.435288 
L 279.406421 -210.074112 
L 280.303164 -207.70417 
L 281.199907 -205.315136 
L 282.09665 -202.899889 
L 282.993394 -200.498356 
L 283.890137 -198.076034 
L 284.78688 -195.649166 
L 285.683623 -193.211819 
L 286.580367 -190.757328 
L 287.47711 -188.324881 
L 288.373853 -185.8994 
L 289.270597 -183.472723 
L 290.16734 -181.047007 
L 291.064083 -178.664424 
L 291.960826 -176.284105 
L 292.85757 -173.911064 
L 293.754313 -171.552578 
L 294.651056 -169.20111 
L 295.547799 -166.877122 
L 296.444543 -164.540444 
L 297.341286 -162.258491 
L 298.238029 -160.001126 
L 299.134773 -157.739183 
L 300.031516 -155.517127 
L 300.928259 -153.300345 
L 301.825002 -151.107499 
L 302.721746 -148.956439 
L 303.618489 -146.83013 
L 304.515232 -144.760201 
L 305.411975 -142.714225 
L 306.308719 -140.676673 
L 307.205462 -138.704114 
L 308.102205 -136.776816 
L 308.998949 -134.858454 
L 309.895692 -132.998769 
L 310.792435 -131.160502 
L 311.689178 -129.361412 
L 312.585922 -127.622815 
L 313.482665 -125.918994 
L 314.379408 -124.252141 
L 315.276151 -122.616481 
L 316.172895 -121.033468 
L 317.069638 -119.463291 
L 317.966381 -117.96226 
L 318.863125 -116.473514 
L 319.759868 -115.03464 
L 320.656611 -113.603444 
L 321.553354 -112.212107 
L 322.450098 -110.848255 
L 323.346841 -109.50216 
L 324.243584 -108.201812 
L 325.140327 -106.921461 
L 326.037071 -105.645585 
L 326.933814 -104.414559 
L 327.830557 -103.211806 
L 328.727301 -102.013994 
L 329.624044 -100.852463 
L 330.520787 -99.717312 
L 331.41753 -98.616222 
L 332.314274 -97.522582 
L 333.211017 -96.452822 
L 334.10776 -95.407721 
L 335.004503 -94.426502 
L 335.901247 -93.450738 
L 336.79799 -92.491778 
L 337.694733 -91.580874 
L 338.591477 -90.693897 
L 339.48822 -89.821132 
L 340.384963 -89.00286 
L 341.281706 -88.201662 
L 342.17845 -87.431592 
L 343.075193 -86.671919 
L 343.971936 -85.936465 
L 344.868679 -85.227275 
L 345.765423 -84.522572 
L 346.662166 -83.83131 
L 347.558909 -83.173771 
L 348.455653 -82.518853 
L 349.352396 -81.880769 
L 350.249139 -81.230957 
L 351.145882 -80.591039 
L 352.042626 -79.966285 
L 352.939369 -79.333146 
L 353.836112 -78.692488 
L 354.732856 -78.040767 
L 355.629599 -77.382848 
L 356.526342 -76.7233 
L 357.423085 -76.06152 
L 358.319829 -75.384657 
L 359.216572 -74.703793 
L 360.113315 -74.008695 
L 361.010058 -73.309181 
L 361.906802 -72.6007 
L 362.803545 -71.882092 
L 363.700288 -71.171526 
L 364.597032 -70.450519 
L 365.493775 -69.74093 
L 366.390518 -69.019464 
L 367.287261 -68.322134 
L 368.184005 -67.608502 
L 369.080748 -66.913699 
L 369.977491 -66.227412 
L 370.874234 -65.556449 
L 371.770978 -64.901747 
L 372.667721 -64.264757 
L 373.564464 -63.643558 
L 374.461208 -63.033344 
L 375.357951 -62.444213 
L 376.254694 -61.878371 
L 377.151437 -61.329612 
L 378.048181 -60.798522 
L 378.944924 -60.288014 
L 379.841667 -59.788679 
L 380.73841 -59.31709 
L 381.635154 -58.850258 
L 382.531897 -58.403257 
L 383.42864 -57.966226 
L 384.325384 -57.528509 
L 385.222127 -57.12074 
L 386.11887 -56.720956 
L 387.015613 -56.330367 
L 387.912357 -55.945138 
L 388.8091 -55.565294 
L 389.705843 -55.186383 
L 390.602586 -54.83019 
L 391.49933 -54.48004 
L 392.396073 -54.139367 
L 393.292816 -53.800263 
L 394.18956 -53.468861 
L 395.086303 -53.150754 
L 395.983046 -52.832535 
L 396.879789 -52.519796 
L 397.776533 -52.232119 
L 398.673276 -51.94852 
L 399.570019 -51.676056 
L 400.466762 -51.420415 
L 401.363506 -51.165525 
L 402.260249 -50.926884 
L 403.156992 -50.703882 
L 404.053736 -50.490722 
L 404.950479 -50.292894 
L 405.847222 -50.117752 
L 406.743965 -49.947174 
L 407.640709 -49.788958 
L 408.537452 -49.636631 
L 409.434195 -49.4924 
L 410.330938 -49.347354 
L 411.227682 -49.219782 
L 412.124425 -49.087806 
L 413.021168 -48.967116 
L 413.917912 -48.84734 
L 414.814655 -48.724559 
L 415.711398 -48.59735 
L 416.608141 -48.470057 
L 417.504885 -48.327951 
L 418.401628 -48.195273 
L 419.298371 -48.052643 
L 420.195114 -47.905219 
L 421.091858 -47.75011 
L 421.988601 -47.579484 
L 422.885344 -47.40985 
L 423.782088 -47.23191 
L 424.678831 -47.038496 
L 425.575574 -46.842225 
L 426.472317 -46.640576 
L 427.369061 -46.439567 
L 428.265804 -46.232067 
L 429.162547 -46.019931 
L 430.05929 -45.809481 
L 430.956034 -45.601403 
L 431.852777 -45.391347 
L 432.74952 -45.186392 
L 433.646264 -44.979502 
L 434.543007 -44.778129 
L 435.43975 -44.58835 
L 436.336493 -44.402211 
L 437.233237 -44.223733 
L 438.12998 -44.053576 
L 439.026723 -43.892257 
L 439.923466 -43.742725 
L 440.82021 -43.599528 
L 441.716953 -43.468536 
L 442.613696 -43.344013 
L 443.51044 -43.234784 
L 444.407183 -43.129211 
L 445.303926 -43.035278 
L 446.200669 -42.946841 
L 447.097413 -42.869153 
L 447.994156 -42.801744 
L 448.890899 -42.738434 
L 449.787642 -42.678693 
L 450.684386 -42.634095 
L 451.581129 -42.596016 
L 452.477872 -42.555237 
L 453.374616 -42.522181 
L 454.271359 -42.493923 
L 455.168102 -42.467604 
L 456.064845 -42.442892 
L 456.961589 -42.427783 
L 457.858332 -42.408056 
L 458.755075 -42.401402 
L 459.651818 -42.398278 
L 460.548562 -42.395651 
L 461.445305 -42.399421 
L 462.342048 -42.401479 
L 463.238792 -42.41089 
L 464.135535 -42.427208 
L 465.032278 -42.447544 
L 465.929021 -42.472201 
L 466.825765 -42.498871 
L 467.722508 -42.533448 
L 468.619251 -42.572877 
L 469.515994 -42.61467 
L 470.412738 -42.664501 
L 471.309481 -42.719061 
L 472.206224 -42.778148 
L 473.102968 -42.841442 
L 473.999711 -42.909149 
L 474.896454 -42.980727 
L 475.793197 -43.05489 
L 476.689941 -43.130886 
L 477.586684 -43.207866 
L 478.483427 -43.28489 
L 479.38017 -43.36095 
L 480.276914 -43.434987 
L 481.173657 -43.509136 
L 482.0704 -43.576647 
L 482.967144 -43.63647 
L 483.863887 -43.693283 
L 484.76063 -43.742952 
L 485.657373 -43.784656 
L 486.554117 -43.817689 
L 487.45086 -43.841474 
L 488.347603 -43.858805 
L 488.347603 -40.949041 
L 488.347603 -40.949041 
L 487.45086 -40.949041 
L 486.554117 -40.949041 
L 485.657373 -40.949041 
L 484.76063 -40.949041 
L 483.863887 -40.949041 
L 482.967144 -40.949041 
L 482.0704 -40.949041 
L 481.173657 -40.949041 
L 480.276914 -40.949041 
L 479.38017 -40.949041 
L 478.483427 -40.949041 
L 477.586684 -40.949041 
L 476.689941 -40.949041 
L 475.793197 -40.949041 
L 474.896454 -40.949041 
L 473.999711 -40.949041 
L 473.102968 -40.949041 
L 472.206224 -40.949041 
L 471.309481 -40.949041 
L 470.412738 -40.949041 
L 469.515994 -40.949041 
L 468.619251 -40.949041 
L 467.722508 -40.949041 
L 466.825765 -40.949041 
L 465.929021 -40.949041 
L 465.032278 -40.949041 
L 464.135535 -40.949041 
L 463.238792 -40.949041 
L 462.342048 -40.949041 
L 461.445305 -40.949041 
L 460.548562 -40.949041 
L 459.651818 -40.949041 
L 458.755075 -40.949041 
L 457.858332 -40.949041 
L 456.961589 -40.949041 
L 456.064845 -40.949041 
L 455.168102 -40.949041 
L 454.271359 -40.949041 
L 453.374616 -40.949041 
L 452.477872 -40.949041 
L 451.581129 -40.949041 
L 450.684386 -40.949041 
L 449.787642 -40.949041 
L 448.890899 -40.949041 
L 447.994156 -40.949041 
L 447.097413 -40.949041 
L 446.200669 -40.949041 
L 445.303926 -40.949041 
L 444.407183 -40.949041 
L 443.51044 -40.949041 
L 442.613696 -40.949041 
L 441.716953 -40.949041 
L 440.82021 -40.949041 
L 439.923466 -40.949041 
L 439.026723 -40.949041 
L 438.12998 -40.949041 
L 437.233237 -40.949041 
L 436.336493 -40.949041 
L 435.43975 -40.949041 
L 434.543007 -40.949041 
L 433.646264 -40.949041 
L 432.74952 -40.949041 
L 431.852777 -40.949041 
L 430.956034 -40.949041 
L 430.05929 -40.949041 
L 429.162547 -40.949041 
L 428.265804 -40.949041 
L 427.369061 -40.949041 
L 426.472317 -40.949041 
L 425.575574 -40.949041 
L 424.678831 -40.949041 
L 423.782088 -40.949041 
L 422.885344 -40.949041 
L 421.988601 -40.949041 
L 421.091858 -40.949041 
L 420.195114 -40.949041 
L 419.298371 -40.949041 
L 418.401628 -40.949041 
L 417.504885 -40.949041 
L 416.608141 -40.949041 
L 415.711398 -40.949041 
L 414.814655 -40.949041 
L 413.917912 -40.949041 
L 413.021168 -40.949041 
L 412.124425 -40.949041 
L 411.227682 -40.949041 
L 410.330938 -40.949041 
L 409.434195 -40.949041 
L 408.537452 -40.949041 
L 407.640709 -40.949041 
L 406.743965 -40.949041 
L 405.847222 -40.949041 
L 404.950479 -40.949041 
L 404.053736 -40.949041 
L 403.156992 -40.949041 
L 402.260249 -40.949041 
L 401.363506 -40.949041 
L 400.466762 -40.949041 
L 399.570019 -40.949041 
L 398.673276 -40.949041 
L 397.776533 -40.949041 
L 396.879789 -40.949041 
L 395.983046 -40.949041 
L 395.086303 -40.949041 
L 394.18956 -40.949041 
L 393.292816 -40.949041 
L 392.396073 -40.949041 
L 391.49933 -40.949041 
L 390.602586 -40.949041 
L 389.705843 -40.949041 
L 388.8091 -40.949041 
L 387.912357 -40.949041 
L 387.015613 -40.949041 
L 386.11887 -40.949041 
L 385.222127 -40.949041 
L 384.325384 -40.949041 
L 383.42864 -40.949041 
L 382.531897 -40.949041 
L 381.635154 -40.949041 
L 380.73841 -40.949041 
L 379.841667 -40.949041 
L 378.944924 -40.949041 
L 378.048181 -40.949041 
L 377.151437 -40.949041 
L 376.254694 -40.949041 
L 375.357951 -40.949041 
L 374.461208 -40.949041 
L 373.564464 -40.949041 
L 372.667721 -40.949041 
L 371.770978 -40.949041 
L 370.874234 -40.949041 
L 369.977491 -40.949041 
L 369.080748 -40.949041 
L 368.184005 -40.949041 
L 367.287261 -40.949041 
L 366.390518 -40.949041 
L 365.493775 -40.949041 
L 364.597032 -40.949041 
L 363.700288 -40.949041 
L 362.803545 -40.949041 
L 361.906802 -40.949041 
L 361.010058 -40.949041 
L 360.113315 -40.949041 
L 359.216572 -40.949041 
L 358.319829 -40.949041 
L 357.423085 -40.949041 
L 356.526342 -40.949041 
L 355.629599 -40.949041 
L 354.732856 -40.949041 
L 353.836112 -40.949041 
L 352.939369 -40.949041 
L 352.042626 -40.949041 
L 351.145882 -40.949041 
L 350.249139 -40.949041 
L 349.352396 -40.949041 
L 348.455653 -40.949041 
L 347.558909 -40.949041 
L 346.662166 -40.949041 
L 345.765423 -40.949041 
L 344.868679 -40.949041 
L 343.971936 -40.949041 
L 343.075193 -40.949041 
L 342.17845 -40.949041 
L 341.281706 -40.949041 
L 340.384963 -40.949041 
L 339.48822 -40.949041 
L 338.591477 -40.949041 
L 337.694733 -40.949041 
L 336.79799 -40.949041 
L 335.901247 -40.949041 
L 335.004503 -40.949041 
L 334.10776 -40.949041 
L 333.211017 -40.949041 
L 332.314274 -40.949041 
L 331.41753 -40.949041 
L 330.520787 -40.949041 
L 329.624044 -40.949041 
L 328.727301 -40.949041 
L 327.830557 -40.949041 
L 326.933814 -40.949041 
L 326.037071 -40.949041 
L 325.140327 -40.949041 
L 324.243584 -40.949041 
L 323.346841 -40.949041 
L 322.450098 -40.949041 
L 321.553354 -40.949041 
L 320.656611 -40.949041 
L 319.759868 -40.949041 
L 318.863125 -40.949041 
L 317.966381 -40.949041 
L 317.069638 -40.949041 
L 316.172895 -40.949041 
L 315.276151 -40.949041 
L 314.379408 -40.949041 
L 313.482665 -40.949041 
L 312.585922 -40.949041 
L 311.689178 -40.949041 
L 310.792435 -40.949041 
L 309.895692 -40.949041 
L 308.998949 -40.949041 
L 308.102205 -40.949041 
L 307.205462 -40.949041 
L 306.308719 -40.949041 
L 305.411975 -40.949041 
L 304.515232 -40.949041 
L 303.618489 -40.949041 
L 302.721746 -40.949041 
L 301.825002 -40.949041 
L 300.928259 -40.949041 
L 300.031516 -40.949041 
L 299.134773 -40.949041 
L 298.238029 -40.949041 
L 297.341286 -40.949041 
L 296.444543 -40.949041 
L 295.547799 -40.949041 
L 294.651056 -40.949041 
L 293.754313 -40.949041 
L 292.85757 -40.949041 
L 291.960826 -40.949041 
L 291.064083 -40.949041 
L 290.16734 -40.949041 
L 289.270597 -40.949041 
L 288.373853 -40.949041 
L 287.47711 -40.949041 
L 286.580367 -40.949041 
L 285.683623 -40.949041 
L 284.78688 -40.949041 
L 283.890137 -40.949041 
L 282.993394 -40.949041 
L 282.09665 -40.949041 
L 281.199907 -40.949041 
L 280.303164 -40.949041 
L 279.406421 -40.949041 
L 278.509677 -40.949041 
L 277.612934 -40.949041 
L 276.716191 -40.949041 
L 275.819447 -40.949041 
L 274.922704 -40.949041 
L 274.025961 -40.949041 
L 273.129218 -40.949041 
L 272.232474 -40.949041 
L 271.335731 -40.949041 
L 270.438988 -40.949041 
L 269.542245 -40.949041 
L 268.645501 -40.949041 
L 267.748758 -40.949041 
L 266.852015 -40.949041 
L 265.955271 -40.949041 
L 265.058528 -40.949041 
L 264.161785 -40.949041 
L 263.265042 -40.949041 
L 262.368298 -40.949041 
L 261.471555 -40.949041 
L 260.574812 -40.949041 
L 259.678069 -40.949041 
L 258.781325 -40.949041 
L 257.884582 -40.949041 
L 256.987839 -40.949041 
L 256.091095 -40.949041 
L 255.194352 -40.949041 
L 254.297609 -40.949041 
L 253.400866 -40.949041 
L 252.504122 -40.949041 
L 251.607379 -40.949041 
L 250.710636 -40.949041 
L 249.813893 -40.949041 
L 248.917149 -40.949041 
L 248.020406 -40.949041 
L 247.123663 -40.949041 
L 246.226919 -40.949041 
L 245.330176 -40.949041 
L 244.433433 -40.949041 
L 243.53669 -40.949041 
L 242.639946 -40.949041 
L 241.743203 -40.949041 
L 240.84646 -40.949041 
L 239.949717 -40.949041 
L 239.052973 -40.949041 
L 238.15623 -40.949041 
L 237.259487 -40.949041 
L 236.362743 -40.949041 
L 235.466 -40.949041 
L 234.569257 -40.949041 
L 233.672514 -40.949041 
L 232.77577 -40.949041 
L 231.879027 -40.949041 
L 230.982284 -40.949041 
L 230.085541 -40.949041 
L 229.188797 -40.949041 
L 228.292054 -40.949041 
L 227.395311 -40.949041 
L 226.498567 -40.949041 
L 225.601824 -40.949041 
L 224.705081 -40.949041 
L 223.808338 -40.949041 
L 222.911594 -40.949041 
L 222.014851 -40.949041 
L 221.118108 -40.949041 
L 220.221365 -40.949041 
L 219.324621 -40.949041 
L 218.427878 -40.949041 
L 217.531135 -40.949041 
L 216.634391 -40.949041 
L 215.737648 -40.949041 
L 214.840905 -40.949041 
L 213.944162 -40.949041 
L 213.047418 -40.949041 
L 212.150675 -40.949041 
L 211.253932 -40.949041 
L 210.357189 -40.949041 
L 209.460445 -40.949041 
L 208.563702 -40.949041 
L 207.666959 -40.949041 
L 206.770215 -40.949041 
L 205.873472 -40.949041 
L 204.976729 -40.949041 
L 204.079986 -40.949041 
L 203.183242 -40.949041 
L 202.286499 -40.949041 
L 201.389756 -40.949041 
L 200.493013 -40.949041 
L 199.596269 -40.949041 
L 198.699526 -40.949041 
L 197.802783 -40.949041 
L 196.906039 -40.949041 
L 196.009296 -40.949041 
L 195.112553 -40.949041 
L 194.21581 -40.949041 
L 193.319066 -40.949041 
L 192.422323 -40.949041 
L 191.52558 -40.949041 
L 190.628837 -40.949041 
L 189.732093 -40.949041 
L 188.83535 -40.949041 
L 187.938607 -40.949041 
L 187.041863 -40.949041 
L 186.14512 -40.949041 
L 185.248377 -40.949041 
L 184.351634 -40.949041 
L 183.45489 -40.949041 
L 182.558147 -40.949041 
L 181.661404 -40.949041 
L 180.764661 -40.949041 
L 179.867917 -40.949041 
L 178.971174 -40.949041 
L 178.074431 -40.949041 
L 177.177687 -40.949041 
L 176.280944 -40.949041 
L 175.384201 -40.949041 
L 174.487458 -40.949041 
L 173.590714 -40.949041 
L 172.693971 -40.949041 
L 171.797228 -40.949041 
L 170.900485 -40.949041 
L 170.003741 -40.949041 
L 169.106998 -40.949041 
L 168.210255 -40.949041 
L 167.313511 -40.949041 
L 166.416768 -40.949041 
L 165.520025 -40.949041 
L 164.623282 -40.949041 
L 163.726538 -40.949041 
L 162.829795 -40.949041 
L 161.933052 -40.949041 
L 161.036309 -40.949041 
L 160.139565 -40.949041 
L 159.242822 -40.949041 
L 158.346079 -40.949041 
L 157.449335 -40.949041 
L 156.552592 -40.949041 
L 155.655849 -40.949041 
L 154.759106 -40.949041 
L 153.862362 -40.949041 
L 152.965619 -40.949041 
L 152.068876 -40.949041 
L 151.172133 -40.949041 
L 150.275389 -40.949041 
L 149.378646 -40.949041 
L 148.481903 -40.949041 
L 147.585159 -40.949041 
L 146.688416 -40.949041 
L 145.791673 -40.949041 
L 144.89493 -40.949041 
L 143.998186 -40.949041 
L 143.101443 -40.949041 
L 142.2047 -40.949041 
L 141.307956 -40.949041 
L 140.411213 -40.949041 
L 139.51447 -40.949041 
L 138.617727 -40.949041 
L 137.720983 -40.949041 
L 136.82424 -40.949041 
L 135.927497 -40.949041 
L 135.030754 -40.949041 
L 134.13401 -40.949041 
L 133.237267 -40.949041 
L 132.340524 -40.949041 
L 131.44378 -40.949041 
L 130.547037 -40.949041 
L 129.650294 -40.949041 
L 128.753551 -40.949041 
L 127.856807 -40.949041 
L 126.960064 -40.949041 
L 126.063321 -40.949041 
L 125.166578 -40.949041 
L 124.269834 -40.949041 
L 123.373091 -40.949041 
L 122.476348 -40.949041 
L 121.579604 -40.949041 
L 120.682861 -40.949041 
L 119.786118 -40.949041 
L 118.889375 -40.949041 
L 117.992631 -40.949041 
L 117.095888 -40.949041 
L 116.199145 -40.949041 
L 115.302402 -40.949041 
L 114.405658 -40.949041 
L 113.508915 -40.949041 
L 112.612172 -40.949041 
L 111.715428 -40.949041 
L 110.818685 -40.949041 
L 109.921942 -40.949041 
L 109.025199 -40.949041 
L 108.128455 -40.949041 
L 107.231712 -40.949041 
L 106.334969 -40.949041 
L 105.438226 -40.949041 
L 104.541482 -40.949041 
L 103.644739 -40.949041 
L 102.747996 -40.949041 
L 101.851252 -40.949041 
L 100.954509 -40.949041 
L 100.057766 -40.949041 
L 99.161023 -40.949041 
L 98.264279 -40.949041 
L 97.367536 -40.949041 
L 96.470793 -40.949041 
L 95.57405 -40.949041 
L 94.677306 -40.949041 
L 93.780563 -40.949041 
L 92.88382 -40.949041 
L 91.987076 -40.949041 
L 91.090333 -40.949041 
L 90.19359 -40.949041 
L 89.296847 -40.949041 
L 88.400103 -40.949041 
L 87.50336 -40.949041 
L 86.606617 -40.949041 
L 85.709874 -40.949041 
L 84.81313 -40.949041 
L 83.916387 -40.949041 
L 83.019644 -40.949041 
L 82.1229 -40.949041 
L 81.226157 -40.949041 
L 80.329414 -40.949041 
L 79.432671 -40.949041 
L 78.535927 -40.949041 
L 77.639184 -40.949041 
L 76.742441 -40.949041 
L 75.845698 -40.949041 
L 74.948954 -40.949041 
L 74.052211 -40.949041 
L 73.155468 -40.949041 
L 72.258724 -40.949041 
L 71.361981 -40.949041 
L 70.465238 -40.949041 
L 69.568495 -40.949041 
L 68.671751 -40.949041 
L 67.775008 -40.949041 
L 66.878265 -40.949041 
L 65.981522 -40.949041 
L 65.084778 -40.949041 
L 64.188035 -40.949041 
L 63.291292 -40.949041 
L 62.394548 -40.949041 
L 61.497805 -40.949041 
L 60.601062 -40.949041 
L 59.704319 -40.949041 
L 58.807575 -40.949041 
L 57.910832 -40.949041 
L 57.014089 -40.949041 
L 56.117346 -40.949041 
L 55.220602 -40.949041 
L 54.323859 -40.949041 
L 53.427116 -40.949041 
L 52.530372 -40.949041 
L 51.633629 -40.949041 
L 50.736886 -40.949041 
L 49.840143 -40.949041 
L 48.943399 -40.949041 
L 48.046656 -40.949041 
L 47.149913 -40.949041 
L 46.25317 -40.949041 
L 45.356426 -40.949041 
L 44.459683 -40.949041 
L 43.56294 -40.949041 
L 42.666196 -40.949041 
L 41.769453 -40.949041 
L 40.87271 -40.949041 
L 39.975967 -40.949041 
L 39.079223 -40.949041 
L 38.18248 -40.949041 
L 37.285737 -40.949041 
L 36.388994 -40.949041 
L 35.49225 -40.949041 
L 34.595507 -40.949041 
L 33.698764 -40.949041 
L 32.80202 -40.949041 
L 31.905277 -40.949041 
L 31.008534 -40.949041 
L 30.111791 -40.949041 
z
" style="stroke: #328c06; stroke-opacity: 0"/>
    </defs>
    <g clip-path="url(#p01a8a881a1)">
     <use xlink:href="#ma229b4556d" x="0" y="353.99952" style="fill: #328c06; fill-opacity: 0; stroke: #328c06; stroke-opacity: 0"/>
    </g>
   </g>
   <g id="line2d_7">
    <path d="M 248.225919 326.750145 
L 248.225919 25.3575 
" clip-path="url(#p01a8a881a1)" style="fill: none; stroke-dasharray: 11.1,4.8; stroke-dashoffset: 0; stroke: #000000; stroke-width: 3"/>
   </g>
   <g id="line2d_8">
    <path d="M 30.111791 310.30076 
L 34.595507 310.189388 
L 39.975967 309.721676 
L 44.459683 309.00235 
L 48.046656 308.182483 
L 50.736886 307.364278 
L 53.427116 306.329394 
L 56.117346 305.049246 
L 58.807575 303.494574 
L 61.497805 301.691224 
L 64.188035 299.66774 
L 68.671751 295.938771 
L 76.742441 289.058785 
L 88.400103 279.312977 
L 91.090333 276.580341 
L 92.88382 274.538528 
L 95.57405 271.043886 
L 98.264279 267.040708 
L 100.954509 262.504561 
L 103.644739 257.48269 
L 106.334969 251.945201 
L 109.921942 243.939152 
L 114.405658 233.186097 
L 119.786118 219.470396 
L 126.063321 202.801841 
L 152.068876 132.571657 
L 156.552592 121.285173 
L 159.242822 114.935787 
L 161.933052 108.976941 
L 165.520025 101.631228 
L 169.106998 94.902282 
L 172.693971 88.732396 
L 177.177687 81.374563 
L 181.661404 74.306717 
L 185.248377 68.998915 
L 189.732093 62.88335 
L 192.422323 59.57323 
L 195.112553 56.479567 
L 199.596269 51.72722 
L 203.183242 48.159353 
L 206.770215 44.85194 
L 210.357189 41.959791 
L 213.047418 40.300878 
L 214.840905 39.575576 
L 216.634391 39.139629 
L 217.531135 39.057166 
L 219.324621 39.223386 
L 220.221365 39.480557 
L 222.014851 40.330948 
L 223.808338 41.582356 
L 225.601824 43.296438 
L 227.395311 45.428384 
L 229.188797 47.94545 
L 230.982284 50.777479 
L 233.672514 55.495492 
L 237.259487 62.362399 
L 247.123663 81.679052 
L 250.710636 88.07045 
L 256.091095 96.970969 
L 260.574812 104.09725 
L 264.161785 110.093182 
L 266.852015 115.025164 
L 270.438988 122.240713 
L 273.129218 128.23785 
L 275.819447 134.713866 
L 279.406421 143.925408 
L 285.683623 160.787701 
L 291.960826 177.715415 
L 297.341286 191.741029 
L 302.721746 205.043081 
L 306.308719 213.322847 
L 309.895692 221.000751 
L 312.585922 226.376705 
L 316.172895 232.966052 
L 318.863125 237.526006 
L 322.450098 243.151265 
L 326.037071 248.353935 
L 329.624044 253.147057 
L 333.211017 257.546698 
L 335.901247 260.548782 
L 338.591477 263.305623 
L 341.281706 265.797858 
L 344.868679 268.772245 
L 348.455653 271.480667 
L 358.319829 278.614863 
L 363.700288 282.827994 
L 369.977491 287.772108 
L 373.564464 290.355962 
L 377.151437 292.669908 
L 380.73841 294.68243 
L 384.325384 296.471011 
L 389.705843 298.813137 
L 395.086303 300.848766 
L 399.570019 302.323464 
L 404.053736 303.508798 
L 407.640709 304.210562 
L 413.021168 305.032404 
L 420.195114 306.094301 
L 424.678831 306.961024 
L 440.82021 310.399992 
L 445.303926 310.964242 
L 449.787642 311.320827 
L 456.961589 311.571737 
L 462.342048 311.598041 
L 468.619251 311.426643 
L 473.999711 311.090371 
L 486.554117 310.181831 
L 488.347603 310.140715 
L 488.347603 310.140715 
" clip-path="url(#p01a8a881a1)" style="fill: none; stroke: #328c06; stroke-width: 1.5; stroke-linecap: round"/>
   </g>
   <g id="patch_3">
    <path d="M 7.2 326.750145 
L 511.259394 326.750145 
" style="fill: none; stroke: #808080; stroke-linejoin: miter; stroke-linecap: square"/>
   </g>
   <g id="text_7">
    <!-- nu -->
    <g style="fill: #262626" transform="translate(249.089697 19.3575)scale(0.16 -0.16)">
     <defs>
      <path id="DejaVuSans-6e" d="M 3513 2113 
L 3513 0 
L 2938 0 
L 2938 2094 
Q 2938 2591 2744 2837 
Q 2550 3084 2163 3084 
Q 1697 3084 1428 2787 
Q 1159 2491 1159 1978 
L 1159 0 
L 581 0 
L 581 3500 
L 1159 3500 
L 1159 2956 
Q 1366 3272 1645 3428 
Q 1925 3584 2291 3584 
Q 2894 3584 3203 3211 
Q 3513 2838 3513 2113 
z
" transform="scale(0.015625)"/>
      <path id="DejaVuSans-75" d="M 544 1381 
L 544 3500 
L 1119 3500 
L 1119 1403 
Q 1119 906 1312 657 
Q 1506 409 1894 409 
Q 2359 409 2629 706 
Q 2900 1003 2900 1516 
L 2900 3500 
L 3475 3500 
L 3475 0 
L 2900 0 
L 2900 538 
Q 2691 219 2414 64 
Q 2138 -91 1772 -91 
Q 1169 -91 856 284 
Q 544 659 544 1381 
z
M 1991 3584 
L 1991 3584 
z
" transform="scale(0.015625)"/>
     </defs>
     <use xlink:href="#DejaVuSans-6e"/>
     <use xlink:href="#DejaVuSans-75" x="63.378906"/>
    </g>
   </g>
   <g id="legend_1">
    <g id="line2d_9">
     <path d="M 396.004394 43.695312 
L 410.004394 43.695312 
L 424.004394 43.695312 
" style="fill: none; stroke-dasharray: 11.1,4.8; stroke-dashoffset: 0; stroke: #000000; stroke-width: 3"/>
    </g>
    <g id="text_8">
     <!-- true -->
     <g style="fill: #262626" transform="translate(435.204394 48.595312)scale(0.14 -0.14)">
      <defs>
       <path id="DejaVuSans-74" d="M 1172 4494 
L 1172 3500 
L 2356 3500 
L 2356 3053 
L 1172 3053 
L 1172 1153 
Q 1172 725 1289 603 
Q 1406 481 1766 481 
L 2356 481 
L 2356 0 
L 1766 0 
Q 1100 0 847 248 
Q 594 497 594 1153 
L 594 3053 
L 172 3053 
L 172 3500 
L 594 3500 
L 594 4494 
L 1172 4494 
z
" transform="scale(0.015625)"/>
       <path id="DejaVuSans-72" d="M 2631 2963 
Q 2534 3019 2420 3045 
Q 2306 3072 2169 3072 
Q 1681 3072 1420 2755 
Q 1159 2438 1159 1844 
L 1159 0 
L 581 0 
L 581 3500 
L 1159 3500 
L 1159 2956 
Q 1341 3275 1631 3429 
Q 1922 3584 2338 3584 
Q 2397 3584 2469 3576 
Q 2541 3569 2628 3553 
L 2631 2963 
z
" transform="scale(0.015625)"/>
       <path id="DejaVuSans-65" d="M 3597 1894 
L 3597 1613 
L 953 1613 
Q 991 1019 1311 708 
Q 1631 397 2203 397 
Q 2534 397 2845 478 
Q 3156 559 3463 722 
L 3463 178 
Q 3153 47 2828 -22 
Q 2503 -91 2169 -91 
Q 1331 -91 842 396 
Q 353 884 353 1716 
Q 353 2575 817 3079 
Q 1281 3584 2069 3584 
Q 2775 3584 3186 3129 
Q 3597 2675 3597 1894 
z
M 3022 2063 
Q 3016 2534 2758 2815 
Q 2500 3097 2075 3097 
Q 1594 3097 1305 2825 
Q 1016 2553 972 2059 
L 3022 2063 
z
" transform="scale(0.015625)"/>
      </defs>
      <use xlink:href="#DejaVuSans-74"/>
      <use xlink:href="#DejaVuSans-72" x="39.208984"/>
      <use xlink:href="#DejaVuSans-75" x="80.322266"/>
      <use xlink:href="#DejaVuSans-65" x="143.701172"/>
     </g>
    </g>
    <g id="line2d_10">
     <path d="M 396.004394 64.244687 
L 410.004394 64.244687 
L 424.004394 64.244687 
" style="fill: none; stroke: #328c06; stroke-width: 1.5; stroke-linecap: round"/>
    </g>
    <g id="text_9">
     <!-- student t -->
     <g style="fill: #262626" transform="translate(435.204394 69.144687)scale(0.14 -0.14)">
      <defs>
       <path id="DejaVuSans-73" d="M 2834 3397 
L 2834 2853 
Q 2591 2978 2328 3040 
Q 2066 3103 1784 3103 
Q 1356 3103 1142 2972 
Q 928 2841 928 2578 
Q 928 2378 1081 2264 
Q 1234 2150 1697 2047 
L 1894 2003 
Q 2506 1872 2764 1633 
Q 3022 1394 3022 966 
Q 3022 478 2636 193 
Q 2250 -91 1575 -91 
Q 1294 -91 989 -36 
Q 684 19 347 128 
L 347 722 
Q 666 556 975 473 
Q 1284 391 1588 391 
Q 1994 391 2212 530 
Q 2431 669 2431 922 
Q 2431 1156 2273 1281 
Q 2116 1406 1581 1522 
L 1381 1569 
Q 847 1681 609 1914 
Q 372 2147 372 2553 
Q 372 3047 722 3315 
Q 1072 3584 1716 3584 
Q 2034 3584 2315 3537 
Q 2597 3491 2834 3397 
z
" transform="scale(0.015625)"/>
       <path id="DejaVuSans-64" d="M 2906 2969 
L 2906 4863 
L 3481 4863 
L 3481 0 
L 2906 0 
L 2906 525 
Q 2725 213 2448 61 
Q 2172 -91 1784 -91 
Q 1150 -91 751 415 
Q 353 922 353 1747 
Q 353 2572 751 3078 
Q 1150 3584 1784 3584 
Q 2172 3584 2448 3432 
Q 2725 3281 2906 2969 
z
M 947 1747 
Q 947 1113 1208 752 
Q 1469 391 1925 391 
Q 2381 391 2643 752 
Q 2906 1113 2906 1747 
Q 2906 2381 2643 2742 
Q 2381 3103 1925 3103 
Q 1469 3103 1208 2742 
Q 947 2381 947 1747 
z
" transform="scale(0.015625)"/>
       <path id="DejaVuSans-20" transform="scale(0.015625)"/>
      </defs>
      <use xlink:href="#DejaVuSans-73"/>
      <use xlink:href="#DejaVuSans-74" x="52.099609"/>
      <use xlink:href="#DejaVuSans-75" x="91.308594"/>
      <use xlink:href="#DejaVuSans-64" x="154.6875"/>
      <use xlink:href="#DejaVuSans-65" x="218.164062"/>
      <use xlink:href="#DejaVuSans-6e" x="279.6875"/>
      <use xlink:href="#DejaVuSans-74" x="343.066406"/>
      <use xlink:href="#DejaVuSans-20" x="382.275391"/>
      <use xlink:href="#DejaVuSans-74" x="414.0625"/>
     </g>
    </g>
   </g>
  </g>
 </g>
 <defs>
  <clipPath id="p01a8a881a1">
   <rect x="7.2" y="25.3575" width="504.059394" height="301.392645"/>
  </clipPath>
 </defs>
</svg>
